<svg width="32" height="33" viewBox="0 0 32 33" fill="none" xmlns="http://www.w3.org/2000/svg">
<rect y="0.5" width="32" height="32" rx="16" fill="#F895B6"/>
<g clip-path="url(#clip0_1_760)">
<path d="M14.08 0.5C11.5413 0.5 9.17333 1.14 6.976 2.42C4.864 3.67867 3.17867 5.364 1.92 7.476C0.64 9.67333 0 12.0413 0 14.58C0 17.1187 0.64 19.4867 1.92 21.684C3.17867 23.8173 4.864 25.5133 6.976 26.772C9.17333 28.052 11.5467 28.692 14.096 28.692C16.6453 28.692 19.008 28.052 21.184 26.772C23.3173 25.5133 25.0133 23.8173 26.272 21.684C27.552 19.508 28.192 17.1453 28.192 14.596C28.192 12.0467 27.552 9.67333 26.272 7.476C25.0133 5.364 23.3173 3.67867 21.184 2.42C18.9867 1.14 16.6187 0.5 14.08 0.5ZM14.08 26.068C12.0107 26.068 10.08 25.5453 8.288 24.5C6.56 23.476 5.184 22.1 4.16 20.372C3.11467 18.58 2.592 16.6493 2.592 14.58C2.592 12.5107 3.11467 10.58 4.16 8.788C5.184 7.06 6.56 5.684 8.288 4.66C10.08 3.61467 12.0107 3.092 14.08 3.092C16.1493 3.092 18.08 3.61467 19.872 4.66C21.6213 5.684 23.008 7.06 24.032 8.788C25.0773 10.58 25.6 12.5107 25.6 14.58C25.6 16.6493 25.0773 18.58 24.032 20.372C23.008 22.1 21.6213 23.476 19.872 24.5C18.08 25.5453 16.1493 26.068 14.08 26.068ZM31.616 30.292L24.16 22.804C23.904 22.5693 23.5947 22.452 23.232 22.452C22.8693 22.452 22.5653 22.5747 22.32 22.82C22.0747 23.0653 21.952 23.3693 21.952 23.732C21.952 24.0947 22.08 24.404 22.336 24.66L29.792 32.116C30.048 32.372 30.352 32.5 30.704 32.5C31.056 32.5 31.36 32.372 31.616 32.116C31.872 31.86 32 31.556 32 31.204C32 30.852 31.872 30.548 31.616 30.292Z" fill="white"/>
</g>
<defs>
<clipPath id="clip0_1_760">
<rect width="32" height="32" fill="white" transform="matrix(1 0 0 -1 0 32.5)"/>
</clipPath>
</defs>
</svg>
